<svg xmlns="http://www.w3.org/2000/svg" width="1200" height="260" viewBox="0 0 1200 260" role="img" aria-labelledby="title desc">
  <title id="title">AmazingWR — помощник для Amazing RP</title>
  <desc id="desc">Уведомления о сделках в павильоне, SMS и звонках</desc>
  <defs>
    <linearGradient id="bg" x1="0" y1="0" x2="1" y2="1">
      <stop offset="0" stop-color="#090b10"/>
      <stop offset="0.56" stop-color="#111820"/>
      <stop offset="1" stop-color="#090c10"/>
    </linearGradient>
    <linearGradient id="accent" x1="0" y1="0" x2="1" y2="0">
      <stop offset="0" stop-color="#65e3bf"/>
      <stop offset="1" stop-color="#60b9ff"/>
    </linearGradient>
    <radialGradient id="glow">
      <stop offset="0" stop-color="#39d4b0" stop-opacity=".18"/>
      <stop offset="1" stop-color="#39d4b0" stop-opacity="0"/>
    </radialGradient>
  </defs>
  <rect width="1200" height="260" rx="24" fill="url(#bg)"/>
  <circle cx="220" cy="115" r="260" fill="url(#glow)"/>
  <path d="M0 222H1200" stroke="#ffffff" stroke-opacity=".07"/>
  <g stroke="#ffffff" stroke-opacity=".045">
    <path d="M20 0V260M70 0V260M1120 0V260M1170 0V260"/>
    <path d="M0 30H1200M0 80H1200M0 130H1200M0 180H1200"/>
  </g>
  <rect x="42" y="42" width="176" height="176" rx="31" fill="#eef0f2"/>
  <g transform="translate(5 0) scale(.56 1)">
    <path d="M69 158h23v-17h16v-23h16V99h17V79h20v29h22v15h22v-15h16V79h20v20h17v19h16v23h17v31h-16v16h-24v14h-46v-8h-28v-9h-31v-8h-28v-6h-22v17H69z" fill="#11151b"/>
    <rect x="225" y="140" width="17" height="5" rx="1" fill="#eef0f2"/>
    <rect x="280" y="140" width="17" height="5" rx="1" fill="#eef0f2"/>
  </g>
  <text x="264" y="84" fill="#aeb8c3" font-family="Segoe UI,Arial,sans-serif" font-size="15" font-weight="600" letter-spacing="3">ПОМОЩНИК ДЛЯ AMAZING RP</text>
  <text x="260" y="159" fill="#f6f7f8" font-family="Segoe UI,Arial,sans-serif" font-size="70" font-weight="700" letter-spacing="-2">AmazingWR</text>
  <rect x="264" y="183" width="70" height="4" rx="2" fill="url(#accent)"/>
  <text x="264" y="211" fill="#c5cbd2" font-family="Segoe UI,Arial,sans-serif" font-size="17">Сделки в павильоне · SMS · звонки · телефонная книга</text>
  <g font-family="Segoe UI,Arial,sans-serif" font-size="13" font-weight="600" letter-spacing="1">
    <rect x="865" y="62" width="282" height="42" rx="13" fill="#171e25" stroke="#2c3940"/>
    <circle cx="888" cy="83" r="5" fill="#6de3ba"/>
    <text x="905" y="88" fill="#e7edf0">ПАВИЛЬОН</text>
    <rect x="865" y="112" width="282" height="42" rx="13" fill="#171e25" stroke="#2c3940"/>
    <circle cx="888" cy="133" r="5" fill="#8ca9ff"/>
    <text x="905" y="138" fill="#e7edf0">ВХОДЯЩИЕ SMS И ЗВОНКИ</text>
    <rect x="865" y="162" width="282" height="42" rx="13" fill="#171e25" stroke="#2c3940"/>
    <circle cx="888" cy="183" r="5" fill="#d28cff"/>
    <text x="905" y="188" fill="#e7edf0">КНИГА КОНТАКТОВ ПО СЕРВЕРАМ</text>
  </g>
  <rect x="1" y="1" width="1198" height="258" rx="24" fill="none" stroke="#39434c" stroke-opacity=".7"/>
</svg>
